<?xml version="1.0" encoding="UTF-8"?>
<svg width="52px" height="52px" viewBox="0 0 52 52" version="1.1" xmlns="http://www.w3.org/2000/svg" xmlns:xlink="http://www.w3.org/1999/xlink">
    <title>573473E0-E98F-47CA-A58E-B95ABF43DF8C</title>
    <defs>
        <polygon id="path-1" points="0.00275955734 0.0245221328 18.5391247 0.0245221328 18.5391247 17.8479251 0.00275955734 17.8479251"></polygon>
    </defs>
    <g id="SMART-BANNERS" stroke="none" stroke-width="1" fill="none" fill-rule="evenodd">
        <g id="Smart-Banner-OM-iOS" transform="translate(-9.000000, -541.000000)">
            <g id="Group-4" transform="translate(0.000000, 526.000000)">
                <g id="Group-8" transform="translate(9.000000, 15.000000)">
                    <rect id="Rectangle" fill="#FF7900" x="0" y="0" width="52" height="52" rx="4"></rect>
                    <g id="Group-6" transform="translate(7.000000, 16.000000)">
                        <path d="M16.1749884,2.14285714 L4.3715149,2.14285714 C3.04796292,2.14285714 1.97507473,3.17447858 1.97507473,4.44712247 C1.97507473,5.71976636 3.04796292,6.7513878 4.3715149,6.7513878 L10.3895424,6.7513878 L0.701969987,16.0664708 C-0.233989996,16.9661787 -0.233989996,18.4251646 0.701969987,19.3251245 C1.63779894,20.2249585 3.15514692,20.2249585 4.09097587,19.3251245 L13.7785482,10.0101675 L13.7785482,15.7965962 C13.7785482,17.0692401 14.8514364,18.1008615 16.1749884,18.1008615 C17.4985404,18.1008615 18.5714286,17.0692401 18.5714286,15.7965962 L18.5714286,4.44712247 C18.5714286,3.17447858 17.4985404,2.14285714 16.1749884,2.14285714" id="Fill-1" fill="#000000"></path>
                        <g id="Group-5" transform="translate(20.000000, 0.000000)">
                            <mask id="mask-2" fill="white">
                                <use xlink:href="#path-1"></use>
                            </mask>
                            <g id="Clip-4"></g>
                            <path d="M2.39468109,17.8479251 L14.1758984,17.8479251 C15.4969547,17.8479251 16.5678199,16.818247 16.5678199,15.5480005 C16.5678199,14.277754 15.4969547,13.248076 14.1758984,13.248076 L8.16934909,13.248076 L17.8385241,3.9506665 C18.7727193,3.05252767 18.7727193,1.59629024 17.8385241,0.698151408 C16.9044598,-0.200113179 15.3899728,-0.200113179 14.4559085,0.698151408 L4.78660262,9.99556087 L4.78660262,4.21990694 C4.78660262,2.94966046 3.71573742,1.91998239 2.39468109,1.91998239 C1.07362475,1.91998239 0.00275955734,2.94966046 0.00275955734,4.21990694 L0.00275955734,15.5480005 C0.00275955734,16.818247 1.07362475,17.8479251 2.39468109,17.8479251" id="Fill-3" fill="#FFFFFF" mask="url(#mask-2)"></path>
                        </g>
                    </g>
                </g>
            </g>
        </g>
    </g>
</svg>